<svg width="32" height="32" viewBox="0 0 32 32" fill="none" xmlns="http://www.w3.org/2000/svg">
<path d="M30 7.52289C30 7.03066 29.6492 6.61718 29.2255 6.61718C29.1133 6.61718 29.001 6.61718 28.8888 6.61718H28.886C27.9403 6.61718 26.9918 6.61718 26.0462 6.61718C23.6974 6.61718 21.3487 6.61718 19 6.61718C16.612 6.61718 14.2212 6.61718 11.8332 6.61718C10.8342 6.61718 9.8352 6.61718 8.83622 6.61718C8.56964 5.5441 8.30587 4.47431 8.03929 3.40123C7.97755 3.15511 7.91862 2.909 7.85689 2.66616C7.76148 2.27893 7.45842 2 7.11046 2C5.83087 2 4.55408 2 3.27449 2C2.85357 2 2.5 2.4102 2.5 2.90571C2.5 3.39795 2.85077 3.81143 3.27449 3.81143C4.36046 3.81143 5.44362 3.81143 6.52959 3.81143C6.81582 4.95998 7.09923 6.11181 7.38546 7.26037C7.85128 9.14071 8.31709 11.0178 8.78291 12.8981C8.79133 13.0261 8.82219 13.1442 8.8699 13.2525C9.06352 14.027 9.25434 14.8047 9.44796 15.5792C9.98393 17.745 10.5227 19.9076 11.0587 22.0734C11.1204 22.3195 11.1793 22.5656 11.2411 22.8085C11.3365 23.1957 11.6395 23.4746 11.9875 23.4746C13.3793 23.4746 14.7712 23.4746 16.163 23.4746C18.6212 23.4746 21.0821 23.4746 23.5403 23.4746C24.5477 23.4746 25.5579 23.4746 26.5653 23.4746C26.9862 23.4746 27.3398 23.0644 27.3398 22.5689C27.3398 22.0767 26.989 21.6632 26.5653 21.6632C25.1735 21.6632 23.7816 21.6632 22.3898 21.6632C19.9316 21.6632 17.4707 21.6632 15.0125 21.6632C14.1987 21.6632 13.3821 21.6632 12.5684 21.6632C12.3579 20.8166 12.1474 19.9699 11.937 19.12C12.9528 19.12 13.9658 19.12 14.9816 19.12C17.4622 19.12 19.9429 19.12 22.4207 19.12C23.5628 19.12 24.7048 19.12 25.8469 19.12H25.8497C25.9452 19.12 26.0434 19.12 26.1388 19.12C26.5597 19.12 26.9133 18.7098 26.9133 18.2143C26.9133 18.0305 26.8656 17.8566 26.7814 17.7155C27.2781 16.0025 27.7719 14.2895 28.2686 12.5732C28.6727 11.172 29.0796 9.77077 29.4837 8.36954C29.7811 8.24812 30 7.91012 30 7.52289ZM27.8365 8.42861C27.4997 9.59357 27.163 10.7618 26.8235 11.9268C25.7628 11.9268 24.7048 11.9268 23.6441 11.9268C23.6329 11.9268 23.6217 11.9268 23.6105 11.9268C23.7367 10.7618 23.863 9.59357 23.9893 8.42861C24.5477 8.42861 25.1061 8.42861 25.6645 8.42861C26.3885 8.42861 27.1125 8.42861 27.8365 8.42861ZM23.0268 17.3118C23.1559 16.1206 23.2849 14.9294 23.414 13.7349C24.3765 13.7349 25.339 13.7349 26.3015 13.7349C25.9564 14.9261 25.6112 16.1173 25.2689 17.3118C24.5196 17.3118 23.7732 17.3118 23.0268 17.3118ZM19.3536 17.3118C19.3536 16.1206 19.3536 14.9294 19.3536 13.7349C19.7633 13.7349 20.1702 13.7349 20.5798 13.7349C21.0092 13.7349 21.4357 13.7349 21.8651 13.7349C21.8622 13.7579 21.8594 13.7809 21.8566 13.8038C21.7304 14.9721 21.6041 16.1403 21.475 17.3085C20.7707 17.3118 20.0607 17.3118 19.3536 17.3118ZM15.6832 17.3118C15.5541 16.1206 15.425 14.9294 15.2959 13.7349C16.1321 13.7349 16.9712 13.7349 17.8074 13.7349C17.8074 13.7841 17.8074 13.8301 17.8074 13.8793C17.8074 15.0246 17.8074 16.1666 17.8074 17.3118C17.0974 17.3118 16.3903 17.3118 15.6832 17.3118ZM10.6013 13.7382C11.4628 13.7382 12.3242 13.7382 13.1829 13.7382C13.3709 13.7382 13.5589 13.7382 13.7469 13.7382C13.7497 13.7612 13.7526 13.7841 13.7554 13.8071C13.8816 14.9753 14.0079 16.1436 14.137 17.3118C13.2559 17.3118 12.3719 17.3118 11.4908 17.3118C11.1934 16.1206 10.8959 14.9294 10.6013 13.7382ZM19.3536 8.42861C20.3834 8.42861 21.4133 8.42861 22.4403 8.42861C22.314 9.59357 22.1878 10.7618 22.0615 11.9268C21.1579 11.9268 20.2571 11.9268 19.3536 11.9268C19.3536 11.9038 19.3536 11.8808 19.3536 11.8579C19.3536 10.7159 19.3536 9.57059 19.3536 8.42861ZM17.8074 11.9268C17.2883 11.9268 16.7691 11.9268 16.25 11.9268C15.8684 11.9268 15.4839 11.9268 15.1023 11.9268C14.976 10.7618 14.8497 9.59357 14.7235 8.42861C15.7533 8.42861 16.7832 8.42861 17.8102 8.42861C17.8074 9.59357 17.8074 10.7618 17.8074 11.9268ZM11.4515 8.42861C12.024 8.42861 12.5964 8.42861 13.1689 8.42861C13.2952 9.59357 13.4214 10.7618 13.5477 11.9268C12.4758 11.9268 11.4038 11.9268 10.3291 11.9268C10.2702 11.9268 10.2084 11.9268 10.1495 11.9268C9.98112 11.2508 9.81276 10.5748 9.64719 9.89875C9.52653 9.4098 9.40306 8.91756 9.2824 8.42861C10.0064 8.42861 10.7304 8.42861 11.4515 8.42861Z" fill="#131D6B"/>
<path d="M16.7017 26.9628C16.6343 25.6699 15.7448 24.6624 14.6251 24.6362C13.4774 24.6099 12.5682 25.7683 12.5458 27.0678C12.5233 28.41 13.5139 29.4732 14.6251 29.4995C15.742 29.5257 16.6315 28.4297 16.7017 27.1728C16.7045 27.14 16.7073 27.1039 16.7045 27.0678C16.7045 27.0317 16.7045 26.9956 16.7017 26.9628Z" fill="#131D6B"/>
<path d="M25.9902 26.9628C25.9229 25.6699 25.0333 24.6624 23.9137 24.6362C22.766 24.6099 21.8568 25.7683 21.8344 27.0678C21.8119 28.41 22.8025 29.4732 23.9137 29.4995C25.0305 29.5257 25.9201 28.4297 25.9902 27.1728C25.993 27.14 25.9958 27.1039 25.993 27.0678C25.993 27.0317 25.993 26.9956 25.9902 26.9628Z" fill="#131D6B"/>
</svg>
