{
    "asset" : {
        "generator" : "Khronos glTF Blender I/O v1.3.48",
        "version" : "2.0"
    },
    "scene" : 0,
    "scenes" : [
        {
            "name" : "Scene",
            "nodes" : [
                0,
                1,
                2,
                3,
                4,
                5,
                6
            ]
        }
    ],
    "nodes" : [
        {
            "mesh" : 0,
            "name" : "bed-mattress",
            "rotation" : [
                0.6592524647712708,
                0.25570717453956604,
                -0.2557072043418884,
                0.6592524647712708
            ],
            "translation" : [
                -12.548298835754395,
                0,
                2.1006274223327637
            ]
        },
        {
            "mesh" : 1,
            "name" : "bed-platform",
            "rotation" : [
                0.6592525243759155,
                0.25570717453956604,
                -0.2557072043418884,
                0.659252405166626
            ],
            "translation" : [
                -12.548298835754395,
                0,
                2.1006271839141846
            ]
        },
        {
            "mesh" : 2,
            "name" : "bed-structure",
            "rotation" : [
                0.6592525243759155,
                0.25570717453956604,
                -0.2557072043418884,
                0.659252405166626
            ],
            "translation" : [
                -12.548298835754395,
                0,
                2.1006271839141846
            ]
        },
        {
            "mesh" : 3,
            "name" : "divan",
            "rotation" : [
                0.6592525243759155,
                0.25570717453956604,
                -0.2557072043418884,
                0.659252405166626
            ],
            "translation" : [
                -12.548298835754395,
                0,
                2.1006267070770264
            ]
        },
        {
            "mesh" : 4,
            "name" : "divan-mattress",
            "rotation" : [
                0.6592525243759155,
                0.25570717453956604,
                -0.2557072043418884,
                0.659252405166626
            ],
            "translation" : [
                -12.548298835754395,
                0,
                2.1006269454956055
            ]
        },
        {
            "mesh" : 5,
            "name" : "pillow",
            "rotation" : [
                0.6592525243759155,
                0.25570717453956604,
                -0.2557072043418884,
                0.659252405166626
            ],
            "translation" : [
                -12.548298835754395,
                0,
                2.1006271839141846
            ]
        },
        {
            "name" : "Camera",
            "rotation" : [
                0.632577657699585,
                0.09807980805635452,
                -0.08121318370103836,
                0.7639570236206055
            ],
            "translation" : [
                200.5516815185547,
                201.531982421875,
                785.920166015625
            ]
        }
    ],
    "animations" : [
        {
            "channels" : [
                {
                    "sampler" : 0,
                    "target" : {
                        "node" : 0,
                        "path" : "rotation"
                    }
                }
            ],
            "name" : "bed_rotation",
            "samplers" : [
                {
                    "input" : 27,
                    "interpolation" : "LINEAR",
                    "output" : 28
                }
            ]
        },
        {
            "channels" : [
                {
                    "sampler" : 0,
                    "target" : {
                        "node" : 1,
                        "path" : "rotation"
                    }
                }
            ],
            "name" : "platform_rotation",
            "samplers" : [
                {
                    "input" : 27,
                    "interpolation" : "LINEAR",
                    "output" : 29
                }
            ]
        },
        {
            "channels" : [
                {
                    "sampler" : 0,
                    "target" : {
                        "node" : 2,
                        "path" : "rotation"
                    }
                }
            ],
            "name" : "structure_rotation",
            "samplers" : [
                {
                    "input" : 27,
                    "interpolation" : "LINEAR",
                    "output" : 30
                }
            ]
        },
        {
            "channels" : [
                {
                    "sampler" : 0,
                    "target" : {
                        "node" : 3,
                        "path" : "rotation"
                    }
                }
            ],
            "name" : "divan_rotation",
            "samplers" : [
                {
                    "input" : 27,
                    "interpolation" : "LINEAR",
                    "output" : 31
                }
            ]
        },
        {
            "channels" : [
                {
                    "sampler" : 0,
                    "target" : {
                        "node" : 4,
                        "path" : "rotation"
                    }
                }
            ],
            "name" : "mattress_rotation",
            "samplers" : [
                {
                    "input" : 27,
                    "interpolation" : "LINEAR",
                    "output" : 32
                }
            ]
        },
        {
            "channels" : [
                {
                    "sampler" : 0,
                    "target" : {
                        "node" : 5,
                        "path" : "rotation"
                    }
                }
            ],
            "name" : "pillow_rotation",
            "samplers" : [
                {
                    "input" : 27,
                    "interpolation" : "LINEAR",
                    "output" : 33
                }
            ]
        }
    ],
    "materials" : [
        {
            "emissiveFactor" : [
                0,
                0,
                0
            ],
            "name" : "lambert3SG.002",
            "pbrMetallicRoughness" : {
                "baseColorFactor" : [
                    0.4399999976158142,
                    0.38999998569488525,
                    0.3400000035762787,
                    1
                ],
                "metallicFactor" : 0,
                "roughnessFactor" : 1
            }
        },
        {
            "emissiveFactor" : [
                0,
                0,
                0
            ],
            "name" : "phong3SG.001",
            "pbrMetallicRoughness" : {
                "baseColorFactor" : [
                    0,
                    0,
                    0,
                    1
                ],
                "metallicFactor" : 0,
                "roughnessFactor" : 0.858578622341156
            }
        },
        {
            "alphaMode" : "BLEND",
            "doubleSided" : true,
            "emissiveFactor" : [
                0,
                0,
                0
            ],
            "name" : "lambert3SG.003",
            "pbrMetallicRoughness" : {
                "baseColorFactor" : [
                    0.4399999976158142,
                    0.38999998569488525,
                    0.3400000035762787,
                    1
                ],
                "metallicFactor" : 0,
                "roughnessFactor" : 1
            }
        },
        {
            "emissiveFactor" : [
                0,
                0,
                0
            ],
            "name" : "phong2SG.002",
            "pbrMetallicRoughness" : {
                "baseColorTexture" : {
                    "index" : 0,
                    "texCoord" : 0
                },
                "metallicFactor" : 0,
                "roughnessFactor" : 0.858578622341156
            }
        },
        {
            "emissiveFactor" : [
                0,
                0,
                0
            ],
            "name" : "phong2SG.003",
            "pbrMetallicRoughness" : {
                "baseColorTexture" : {
                    "index" : 1,
                    "texCoord" : 0
                },
                "metallicFactor" : 0,
                "roughnessFactor" : 0.858578622341156
            }
        },
        {
            "emissiveFactor" : [
                0,
                0,
                0
            ],
            "name" : "lambert4SG.002",
            "pbrMetallicRoughness" : {
                "baseColorFactor" : [
                    0.800000011920929,
                    0.7799999713897705,
                    0.7599999904632568,
                    1
                ],
                "metallicFactor" : 0,
                "roughnessFactor" : 1
            }
        },
        {
            "emissiveFactor" : [
                0,
                0,
                0
            ],
            "name" : "pillow1:lambert4SG.002",
            "pbrMetallicRoughness" : {
                "baseColorFactor" : [
                    0.800000011920929,
                    0.7799999713897705,
                    0.7599999904632568,
                    1
                ],
                "metallicFactor" : 0,
                "roughnessFactor" : 1
            }
        }
    ],
    "meshes" : [
        {
            "name" : "bed-mattress",
            "primitives" : [
                {
                    "attributes" : {
                        "POSITION" : 0,
                        "NORMAL" : 1,
                        "TEXCOORD_0" : 2
                    },
                    "indices" : 3,
                    "material" : 0
                }
            ]
        },
        {
            "name" : "bed-platform",
            "primitives" : [
                {
                    "attributes" : {
                        "POSITION" : 4,
                        "NORMAL" : 5,
                        "TEXCOORD_0" : 6
                    },
                    "indices" : 7,
                    "material" : 1
                },
                {
                    "attributes" : {
                        "POSITION" : 8,
                        "NORMAL" : 9,
                        "TEXCOORD_0" : 10
                    },
                    "indices" : 11,
                    "material" : 2
                }
            ]
        },
        {
            "name" : "bed-structure",
            "primitives" : [
                {
                    "attributes" : {
                        "POSITION" : 12,
                        "NORMAL" : 13,
                        "TEXCOORD_0" : 14
                    },
                    "indices" : 15,
                    "material" : 3
                }
            ]
        },
        {
            "name" : "divan",
            "primitives" : [
                {
                    "attributes" : {
                        "POSITION" : 16,
                        "NORMAL" : 17,
                        "TEXCOORD_0" : 18
                    },
                    "indices" : 19,
                    "material" : 4
                }
            ]
        },
        {
            "name" : "divan-mattress",
            "primitives" : [
                {
                    "attributes" : {
                        "POSITION" : 20,
                        "NORMAL" : 21,
                        "TEXCOORD_0" : 22
                    },
                    "indices" : 3,
                    "material" : 5
                }
            ]
        },
        {
            "name" : "pillow",
            "primitives" : [
                {
                    "attributes" : {
                        "POSITION" : 23,
                        "NORMAL" : 24,
                        "TEXCOORD_0" : 25
                    },
                    "indices" : 26,
                    "material" : 6
                }
            ]
        }
    ],
    "textures" : [
        {
            "source" : 0
        },
        {
            "source" : 0
        }
    ],
    "images" : [
        {
            "mimeType" : "image/jpeg",
            "name" : "Wood023_2K_ColorPink",
            "uri" : "texturesV_rot/Wood023_2K_ColorPink.jpg"
        }
    ],
    "accessors" : [
        {
            "bufferView" : 0,
            "componentType" : 5126,
            "count" : 112,
            "max" : [
                45,
                94.98673248291016,
                5.879961967468262
            ],
            "min" : [
                -45,
                -91.01180267333984,
                -10
            ],
            "type" : "VEC3"
        },
        {
            "bufferView" : 1,
            "componentType" : 5126,
            "count" : 112,
            "type" : "VEC3"
        },
        {
            "bufferView" : 2,
            "componentType" : 5126,
            "count" : 112,
            "type" : "VEC2"
        },
        {
            "bufferView" : 3,
            "componentType" : 5123,
            "count" : 348,
            "type" : "SCALAR"
        },
        {
            "bufferView" : 4,
            "componentType" : 5126,
            "count" : 590,
            "max" : [
                46.35649108886719,
                99.46365356445312,
                8.329548835754395
            ],
            "min" : [
                -46.77751541137695,
                -95.48871612548828,
                6.419869899749756
            ],
            "type" : "VEC3"
        },
        {
            "bufferView" : 5,
            "componentType" : 5126,
            "count" : 590,
            "type" : "VEC3"
        },
        {
            "bufferView" : 6,
            "componentType" : 5126,
            "count" : 590,
            "type" : "VEC2"
        },
        {
            "bufferView" : 7,
            "componentType" : 5123,
            "count" : 1308,
            "type" : "SCALAR"
        },
        {
            "bufferView" : 8,
            "componentType" : 5126,
            "count" : 112,
            "max" : [
                43.348323822021484,
                80.58747100830078,
                7.95814323425293
            ],
            "min" : [
                -44.03867721557617,
                -71.11967468261719,
                7.186592102050781
            ],
            "type" : "VEC3"
        },
        {
            "bufferView" : 9,
            "componentType" : 5126,
            "count" : 112,
            "type" : "VEC3"
        },
        {
            "bufferView" : 10,
            "componentType" : 5126,
            "count" : 112,
            "type" : "VEC2"
        },
        {
            "bufferView" : 11,
            "componentType" : 5123,
            "count" : 168,
            "type" : "SCALAR"
        },
        {
            "bufferView" : 12,
            "componentType" : 5126,
            "count" : 506,
            "max" : [
                51.464412689208984,
                103.00001525878906,
                26.85978889465332
            ],
            "min" : [
                -51.464412689208984,
                -98.81265258789062,
                -101.21788787841797
            ],
            "type" : "VEC3"
        },
        {
            "bufferView" : 13,
            "componentType" : 5126,
            "count" : 506,
            "type" : "VEC3"
        },
        {
            "bufferView" : 14,
            "componentType" : 5126,
            "count" : 506,
            "type" : "VEC2"
        },
        {
            "bufferView" : 15,
            "componentType" : 5123,
            "count" : 1137,
            "type" : "SCALAR"
        },
        {
            "bufferView" : 16,
            "componentType" : 5126,
            "count" : 108,
            "max" : [
                48.56218719482422,
                98.60099792480469,
                25.174551010131836
            ],
            "min" : [
                -48.07172393798828,
                -94.18061828613281,
                10.076335906982422
            ],
            "type" : "VEC3"
        },
        {
            "bufferView" : 17,
            "componentType" : 5126,
            "count" : 108,
            "type" : "VEC3"
        },
        {
            "bufferView" : 18,
            "componentType" : 5126,
            "count" : 108,
            "type" : "VEC2"
        },
        {
            "bufferView" : 19,
            "componentType" : 5123,
            "count" : 192,
            "type" : "SCALAR"
        },
        {
            "bufferView" : 20,
            "componentType" : 5126,
            "count" : 112,
            "max" : [
                45.245208740234375,
                95.20945739746094,
                25.558921813964844
            ],
            "min" : [
                -44.754791259765625,
                -90.78907775878906,
                9.678959846496582
            ],
            "type" : "VEC3"
        },
        {
            "bufferView" : 21,
            "componentType" : 5126,
            "count" : 112,
            "type" : "VEC3"
        },
        {
            "bufferView" : 22,
            "componentType" : 5126,
            "count" : 112,
            "type" : "VEC2"
        },
        {
            "bufferView" : 23,
            "componentType" : 5126,
            "count" : 449,
            "max" : [
                29.03291130065918,
                -29.599992752075195,
                -8.594334602355957
            ],
            "min" : [
                -37.699134826660156,
                -84.16160583496094,
                -27.148963928222656
            ],
            "type" : "VEC3"
        },
        {
            "bufferView" : 24,
            "componentType" : 5126,
            "count" : 449,
            "type" : "VEC3"
        },
        {
            "bufferView" : 25,
            "componentType" : 5126,
            "count" : 449,
            "type" : "VEC2"
        },
        {
            "bufferView" : 26,
            "componentType" : 5123,
            "count" : 1680,
            "type" : "SCALAR"
        },
        {
            "bufferView" : 27,
            "componentType" : 5126,
            "count" : 360,
            "max" : [
                15
            ],
            "min" : [
                0.041666666666666664
            ],
            "type" : "SCALAR"
        },
        {
            "bufferView" : 28,
            "componentType" : 5126,
            "count" : 360,
            "type" : "VEC4"
        },
        {
            "bufferView" : 29,
            "componentType" : 5126,
            "count" : 360,
            "type" : "VEC4"
        },
        {
            "bufferView" : 30,
            "componentType" : 5126,
            "count" : 360,
            "type" : "VEC4"
        },
        {
            "bufferView" : 31,
            "componentType" : 5126,
            "count" : 360,
            "type" : "VEC4"
        },
        {
            "bufferView" : 32,
            "componentType" : 5126,
            "count" : 360,
            "type" : "VEC4"
        },
        {
            "bufferView" : 33,
            "componentType" : 5126,
            "count" : 360,
            "type" : "VEC4"
        }
    ],
    "bufferViews" : [
        {
            "buffer" : 0,
            "byteLength" : 1344,
            "byteOffset" : 0
        },
        {
            "buffer" : 0,
            "byteLength" : 1344,
            "byteOffset" : 1344
        },
        {
            "buffer" : 0,
            "byteLength" : 896,
            "byteOffset" : 2688
        },
        {
            "buffer" : 0,
            "byteLength" : 696,
            "byteOffset" : 3584
        },
        {
            "buffer" : 0,
            "byteLength" : 7080,
            "byteOffset" : 4280
        },
        {
            "buffer" : 0,
            "byteLength" : 7080,
            "byteOffset" : 11360
        },
        {
            "buffer" : 0,
            "byteLength" : 4720,
            "byteOffset" : 18440
        },
        {
            "buffer" : 0,
            "byteLength" : 2616,
            "byteOffset" : 23160
        },
        {
            "buffer" : 0,
            "byteLength" : 1344,
            "byteOffset" : 25776
        },
        {
            "buffer" : 0,
            "byteLength" : 1344,
            "byteOffset" : 27120
        },
        {
            "buffer" : 0,
            "byteLength" : 896,
            "byteOffset" : 28464
        },
        {
            "buffer" : 0,
            "byteLength" : 336,
            "byteOffset" : 29360
        },
        {
            "buffer" : 0,
            "byteLength" : 6072,
            "byteOffset" : 29696
        },
        {
            "buffer" : 0,
            "byteLength" : 6072,
            "byteOffset" : 35768
        },
        {
            "buffer" : 0,
            "byteLength" : 4048,
            "byteOffset" : 41840
        },
        {
            "buffer" : 0,
            "byteLength" : 2274,
            "byteOffset" : 45888
        },
        {
            "buffer" : 0,
            "byteLength" : 1296,
            "byteOffset" : 48164
        },
        {
            "buffer" : 0,
            "byteLength" : 1296,
            "byteOffset" : 49460
        },
        {
            "buffer" : 0,
            "byteLength" : 864,
            "byteOffset" : 50756
        },
        {
            "buffer" : 0,
            "byteLength" : 384,
            "byteOffset" : 51620
        },
        {
            "buffer" : 0,
            "byteLength" : 1344,
            "byteOffset" : 52004
        },
        {
            "buffer" : 0,
            "byteLength" : 1344,
            "byteOffset" : 53348
        },
        {
            "buffer" : 0,
            "byteLength" : 896,
            "byteOffset" : 54692
        },
        {
            "buffer" : 0,
            "byteLength" : 5388,
            "byteOffset" : 55588
        },
        {
            "buffer" : 0,
            "byteLength" : 5388,
            "byteOffset" : 60976
        },
        {
            "buffer" : 0,
            "byteLength" : 3592,
            "byteOffset" : 66364
        },
        {
            "buffer" : 0,
            "byteLength" : 3360,
            "byteOffset" : 69956
        },
        {
            "buffer" : 0,
            "byteLength" : 1440,
            "byteOffset" : 73316
        },
        {
            "buffer" : 0,
            "byteLength" : 5760,
            "byteOffset" : 74756
        },
        {
            "buffer" : 0,
            "byteLength" : 5760,
            "byteOffset" : 80516
        },
        {
            "buffer" : 0,
            "byteLength" : 5760,
            "byteOffset" : 86276
        },
        {
            "buffer" : 0,
            "byteLength" : 5760,
            "byteOffset" : 92036
        },
        {
            "buffer" : 0,
            "byteLength" : 5760,
            "byteOffset" : 97796
        },
        {
            "buffer" : 0,
            "byteLength" : 5760,
            "byteOffset" : 103556
        }
    ],
    "buffers" : [
        {
            "byteLength" : 109316,
            "uri" : "vintage-bed_verticale_rot.bin"
        }
    ]
}
